<svg xmlns="http://www.w3.org/2000/svg" width="347" height="204" viewBox="0 0 347 204" fill="none">
  <path d="M48.0403 2C34.9419 2 22.1946 2 9.9996 2C5.58132 2 2 5.57355 2 9.99183C2 18.8103 2 33.1455 2 43.6667M298.96 2C316.011 2 329.2 2 337.008 2C341.426 2 345 5.58172 345 10V44.1875M2 160.854C2 175.064 2 186.763 2 194.007C2 198.425 5.58172 202 10 202H48.0403M298.96 202C310.799 202 323.292 202 336.999 202C341.418 202 345 198.418 345 194V159.812" stroke="white" stroke-width="4" stroke-linecap="round"/>
</svg>
